<?xml version="1.0" encoding="UTF-8" standalone="no"?>
<!-- Created with Inkscape (http://www.inkscape.org/) -->

<svg
   xmlns:dc="http://purl.org/dc/elements/1.1/"
   xmlns:cc="http://creativecommons.org/ns#"
   xmlns:rdf="http://www.w3.org/1999/02/22-rdf-syntax-ns#"
   xmlns:svg="http://www.w3.org/2000/svg"
   xmlns="http://www.w3.org/2000/svg"
   xmlns:sodipodi="http://sodipodi.sourceforge.net/DTD/sodipodi-0.dtd"
   xmlns:inkscape="http://www.inkscape.org/namespaces/inkscape"
   width="30mm"
   height="30mm"
   viewBox="0 0 30 30"
   version="1.1"
   id="svg1413"
   inkscape:version="0.92.2 5c3e80d, 2017-08-06"
   sodipodi:docname="ship1.svg">
  <defs
     id="defs1407" />
  <sodipodi:namedview
     id="base"
     pagecolor="#ffffff"
     bordercolor="#666666"
     borderopacity="1.0"
     inkscape:pageopacity="0.0"
     inkscape:pageshadow="2"
     inkscape:zoom="2.6816043"
     inkscape:cx="86.703532"
     inkscape:cy="51.042039"
     inkscape:document-units="mm"
     inkscape:current-layer="layer1"
     showgrid="false"
     inkscape:measure-start="0,0"
     inkscape:measure-end="0,0"
     inkscape:window-width="1440"
     inkscape:window-height="775"
     inkscape:window-x="0"
     inkscape:window-y="1"
     inkscape:window-maximized="1" />
  <metadata
     id="metadata1410">
    <rdf:RDF>
      <cc:Work
         rdf:about="">
        <dc:format>image/svg+xml</dc:format>
        <dc:type
           rdf:resource="http://purl.org/dc/dcmitype/StillImage" />
        <dc:title></dc:title>
      </cc:Work>
    </rdf:RDF>
  </metadata>
  <g
     inkscape:label="Livello 1"
     inkscape:groupmode="layer"
     id="layer1"
     transform="translate(0,-267)">
    <g
       id="g2840"
       transform="translate(0.70451765,6.639052)">
      <g
         inkscape:label="Livello 1"
         id="layer1-9"
         transform="translate(19.621229,-16.453651)">
        <path
           sodipodi:nodetypes="cccccccccc"
           inkscape:connector-curvature="0"
           id="path2757"
           d="m -13.886685,292.71048 c -1.763441,0 -1.533427,3.60355 -1.533427,3.60355 l -0.529166,3.83357 -2.070126,0.76671 v 0.61337 l 2.760168,-0.0767 0.766713,-1.15007 h 0.536699 l -0.07667,0.76671 0.460028,-0.0767"
           style="fill:none;stroke:#000000;stroke-width:0.26458332px;stroke-linecap:butt;stroke-linejoin:miter;stroke-opacity:1" />
        <path
           style="fill:none;stroke:#000000;stroke-width:0.26458332px;stroke-linecap:butt;stroke-linejoin:miter;stroke-opacity:1"
           d="m -13.886685,292.71048 c 1.76344,0 1.533426,3.60355 1.533426,3.60355 l 0.529167,3.83357 2.0701257,0.76671 v 0.61337 l -2.7601677,-0.0767 -0.766713,-1.15007 h -0.536699 l 0.07667,0.76671 -0.460028,-0.0767"
           id="path2759"
           inkscape:connector-curvature="0"
           sodipodi:nodetypes="cccccccccc" />
        <path
           inkscape:connector-curvature="0"
           id="path2761"
           d="m -15.182565,294.09056 c 1.073399,0.5367 2.683496,0 2.683496,0"
           style="fill:none;stroke:#000000;stroke-width:0.26458332px;stroke-linecap:butt;stroke-linejoin:miter;stroke-opacity:1" />
        <path
           inkscape:connector-curvature="0"
           id="path2763"
           d="m -14.442375,294.1588 c -0.208446,-0.0309 -0.40319,-0.0788 -0.521818,-0.12837 -0.08798,-0.0368 -0.08849,-0.023 0.01055,-0.2823 0.09175,-0.24018 0.202441,-0.41381 0.375083,-0.58836 0.180974,-0.18296 0.31726,-0.25688 0.542086,-0.29401 0.439528,-0.0726 0.842004,0.15849 1.098953,0.63096 0.07897,0.14521 0.20264,0.4439 0.20264,0.48943 0,0.0307 -0.278494,0.0983 -0.618052,0.15001 -0.298525,0.0454 -0.857259,0.0571 -1.089446,0.0226 z"
           style="opacity:1;fill:#ff0000;fill-opacity:1;stroke:#000080;stroke-width:0.03959223;stroke-miterlimit:4;stroke-dasharray:none;stroke-dashoffset:0;stroke-opacity:1" />
        <path
           inkscape:connector-curvature="0"
           id="path2765"
           d="m -14.664588,295.402 -0.293312,3.01693"
           style="fill:none;stroke:#000000;stroke-width:0.26458332px;stroke-linecap:butt;stroke-linejoin:miter;stroke-opacity:1" />
        <path
           inkscape:connector-curvature="0"
           id="path2767"
           d="m -14.057012,296.17718 -0.06285,1.59227"
           style="fill:none;stroke:#000000;stroke-width:0.26458332px;stroke-linecap:butt;stroke-linejoin:miter;stroke-opacity:1" />
        <path
           inkscape:connector-curvature="0"
           id="path2769"
           d="m -13.281829,295.21344 0.251411,3.66641"
           style="fill:none;stroke:#000000;stroke-width:0.26458332px;stroke-linecap:butt;stroke-linejoin:miter;stroke-opacity:1" />
        <path
           style="fill:none;stroke:#000000;stroke-width:0.26458332px;stroke-linecap:butt;stroke-linejoin:miter;stroke-opacity:1"
           d="m 3.5758151,292.71048 c -1.7634405,0 -1.5334265,3.60355 -1.5334265,3.60355 l -0.5291667,3.83357 -2.07012587,0.76671 v 0.61337 l 2.76016757,-0.0767 0.7667133,-1.15007 h 0.5366994 l -0.076671,0.76671 0.4600279,-0.0767"
           id="path2555"
           inkscape:connector-curvature="0"
           sodipodi:nodetypes="cccccccccc" />
        <path
           sodipodi:nodetypes="cccccccccc"
           inkscape:connector-curvature="0"
           id="path2557"
           d="m 3.5758151,292.71048 c 1.7634405,0 1.5334265,3.60355 1.5334265,3.60355 l 0.5291667,3.83357 2.0701259,0.76671 v 0.61337 l -2.7601676,-0.0767 -0.7667133,-1.15007 H 3.6449539 l 0.076671,0.76671 -0.4600279,-0.0767"
           style="fill:none;stroke:#000000;stroke-width:0.26458332px;stroke-linecap:butt;stroke-linejoin:miter;stroke-opacity:1" />
        <path
           style="fill:none;stroke:#000000;stroke-width:0.26458332px;stroke-linecap:butt;stroke-linejoin:miter;stroke-opacity:1"
           d="m 2.2799351,294.09056 c 1.0733985,0.5367 2.6834962,0 2.6834962,0"
           id="path2559"
           inkscape:connector-curvature="0" />
        <path
           style="opacity:1;fill:#ff0000;fill-opacity:1;stroke:#000080;stroke-width:0.03959223;stroke-miterlimit:4;stroke-dasharray:none;stroke-dashoffset:0;stroke-opacity:1"
           d="m 3.0201253,294.1588 c -0.2084459,-0.0309 -0.4031906,-0.0788 -0.5218179,-0.12837 -0.087981,-0.0368 -0.088495,-0.023 0.010554,-0.2823 0.091746,-0.24018 0.2024411,-0.41381 0.3750825,-0.58836 0.1809737,-0.18296 0.3172603,-0.25688 0.5420858,-0.29401 0.4395287,-0.0726 0.8420039,0.15849 1.0989529,0.63096 0.07897,0.14521 0.2026399,0.4439 0.2026399,0.48943 0,0.0307 -0.2784933,0.0983 -0.618051,0.15001 -0.2985257,0.0454 -0.857259,0.0571 -1.0894462,0.0226 z"
           id="path2561"
           inkscape:connector-curvature="0" />
        <path
           style="fill:none;stroke:#000000;stroke-width:0.26458332px;stroke-linecap:butt;stroke-linejoin:miter;stroke-opacity:1"
           d="m 2.7979123,295.402 -0.2933126,3.01693"
           id="path2563"
           inkscape:connector-curvature="0" />
        <path
           style="fill:none;stroke:#000000;stroke-width:0.26458332px;stroke-linecap:butt;stroke-linejoin:miter;stroke-opacity:1"
           d="m 3.405488,296.17718 -0.062853,1.59227"
           id="path2565"
           inkscape:connector-curvature="0" />
        <path
           style="fill:none;stroke:#000000;stroke-width:0.26458332px;stroke-linecap:butt;stroke-linejoin:miter;stroke-opacity:1"
           d="m 4.1806708,295.21344 0.2514105,3.66641"
           id="path2567"
           inkscape:connector-curvature="0" />
        <path
           style="fill:none;stroke:#000000;stroke-width:0.26458332px;stroke-linecap:butt;stroke-linejoin:miter;stroke-opacity:1"
           d="m -13.886685,292.71048 c -1.763441,0 -1.533427,3.60355 -1.533427,3.60355 l -0.529166,3.83357 -2.070126,0.76671 v 0.61337 l 2.760168,-0.0767 0.766713,-1.15007 h 0.536699 l -0.07667,0.76671 0.460028,-0.0767"
           id="path2773"
           inkscape:connector-curvature="0"
           sodipodi:nodetypes="cccccccccc" />
        <path
           sodipodi:nodetypes="cccccccccc"
           inkscape:connector-curvature="0"
           id="path2775"
           d="m -13.886685,292.71048 c 1.76344,0 1.533426,3.60355 1.533426,3.60355 l 0.529167,3.83357 2.0701257,0.76671 v 0.61337 l -2.7601677,-0.0767 -0.766713,-1.15007 h -0.536699 l 0.07667,0.76671 -0.460028,-0.0767"
           style="fill:none;stroke:#000000;stroke-width:0.26458332px;stroke-linecap:butt;stroke-linejoin:miter;stroke-opacity:1" />
        <path
           style="fill:none;stroke:#000000;stroke-width:0.26458332px;stroke-linecap:butt;stroke-linejoin:miter;stroke-opacity:1"
           d="m -15.182565,294.09056 c 1.073399,0.5367 2.683496,0 2.683496,0"
           id="path2777"
           inkscape:connector-curvature="0" />
        <path
           style="opacity:1;fill:#ff0000;fill-opacity:1;stroke:#000080;stroke-width:0.03959223;stroke-miterlimit:4;stroke-dasharray:none;stroke-dashoffset:0;stroke-opacity:1"
           d="m -14.442375,294.1588 c -0.208446,-0.0309 -0.40319,-0.0788 -0.521818,-0.12837 -0.08798,-0.0368 -0.08849,-0.023 0.01055,-0.2823 0.09175,-0.24018 0.202441,-0.41381 0.375083,-0.58836 0.180974,-0.18296 0.31726,-0.25688 0.542086,-0.29401 0.439528,-0.0726 0.842004,0.15849 1.098953,0.63096 0.07897,0.14521 0.20264,0.4439 0.20264,0.48943 0,0.0307 -0.278494,0.0983 -0.618052,0.15001 -0.298525,0.0454 -0.857259,0.0571 -1.089446,0.0226 z"
           id="path2779"
           inkscape:connector-curvature="0" />
        <path
           style="fill:none;stroke:#000000;stroke-width:0.26458332px;stroke-linecap:butt;stroke-linejoin:miter;stroke-opacity:1"
           d="m -14.664588,295.402 -0.293312,3.01693"
           id="path2781"
           inkscape:connector-curvature="0" />
        <path
           style="fill:none;stroke:#000000;stroke-width:0.26458332px;stroke-linecap:butt;stroke-linejoin:miter;stroke-opacity:1"
           d="m -14.057012,296.17718 -0.06285,1.59227"
           id="path2783"
           inkscape:connector-curvature="0" />
        <path
           style="fill:none;stroke:#000000;stroke-width:0.26458332px;stroke-linecap:butt;stroke-linejoin:miter;stroke-opacity:1"
           d="m -13.281829,295.21344 0.251411,3.66641"
           id="path2785"
           inkscape:connector-curvature="0" />
      </g>
      <path
         transform="matrix(0.26458333,0,0,0.26458333,0,267)"
         inkscape:connector-curvature="0"
         id="path2808"
         d="m 6.5873551,67.066509 c 0,-0.530031 0.440627,-0.758567 3.8893979,-2.017282 2.139168,-0.780743 3.908444,-1.431367 3.931724,-1.445832 0.191365,-0.118904 2.134452,-16.116051 2.18115,-17.957081 0.07237,-2.85323 0.344482,-4.50279 0.730191,-4.426491 2.550167,0.504461 4.017916,0.587087 6.016705,0.338708 1.226357,-0.152393 2.393087,-0.33976 2.592733,-0.416371 0.50847,-0.195118 0.681812,0.844059 0.971251,5.822594 0.134906,2.320454 0.638601,7.005636 1.119324,10.411515 l 0.874042,6.192507 3.876956,1.425847 c 3.494531,1.2852 3.876955,1.487191 3.876955,2.047741 0,0.574566 -0.105357,0.621814 -1.384362,0.620825 -0.761399,-5.28e-4 -2.894233,-0.07808 -4.73963,-0.172194 l -3.355268,-0.171125 -1.364036,-2.07768 -1.364036,-2.07768 -2.777996,0.07445 -2.777995,0.07445 -1.370479,1.97766 -1.37048,1.977659 -2.602647,0.166794 c -1.431457,0.09174 -3.58159,0.180731 -4.7780742,0.197765 -2.0941142,0.02982 -2.1754257,0.0086 -2.1754257,-0.566777 z M 25.437355,56.523443 c -0.08664,-1.051456 -0.315557,-4.202362 -0.508706,-7.002014 -0.19315,-2.799652 -0.418743,-5.157838 -0.501318,-5.240413 -0.08257,-0.08258 -0.333244,-0.07987 -0.557042,0.006 -0.514548,0.197451 -0.515659,1.104964 -0.0097,7.95149 0.214339,2.900568 0.390649,5.481414 0.3918,5.735213 0.0014,0.317896 0.210596,0.461454 0.672308,0.461454 h 0.670216 z M 18.733693,51.66712 c 0.648604,-6.442237 0.648189,-6.680026 -0.01167,-6.680026 -0.645449,0 -0.656166,0.05154 -1.178832,5.669291 -0.524501,5.637474 -0.52245,5.868924 0.05314,5.996952 0.253799,0.05645 0.501038,0.07501 0.549418,0.04124 0.04838,-0.03377 0.312957,-2.296126 0.587947,-5.027457 z m 2.713011,1.164691 c 0.09145,-0.761399 0.167313,-2.185314 0.168573,-3.164256 0.0022,-1.723372 -0.01864,-1.779893 -0.656928,-1.779893 h -0.65922 v 3.164255 c 0,2.909506 0.0395,3.164256 0.490647,3.164256 0.394984,0 0.523067,-0.269912 0.656928,-1.384362 z"
         style="opacity:1;fill:#f2f2f2;fill-opacity:1;stroke:none;stroke-width:0.49830797;stroke-miterlimit:4;stroke-dasharray:none;stroke-dashoffset:0;stroke-opacity:1" />
      <g
         id="g2813">
        <path
           style="opacity:1;fill:#f2f2f2;fill-opacity:1;stroke:none;stroke-width:0.49830797;stroke-miterlimit:4;stroke-dasharray:none;stroke-dashoffset:0;stroke-opacity:1"
           d="m 72.773035,67.038291 c 0,-0.564209 0.370726,-0.763758 3.757554,-2.022564 2.066654,-0.768128 3.789696,-1.418419 3.82898,-1.445093 0.256078,-0.173868 1.990242,-13.923196 2.177599,-17.2651 0.262809,-4.687743 0.399399,-5.37828 1.015806,-5.135454 1.232571,0.485555 3.61642,0.648055 5.703057,0.38876 1.227723,-0.152563 2.39611,-0.340275 2.596415,-0.41714 0.544456,-0.208927 0.698887,0.627687 0.953197,5.163834 0.187357,3.341904 1.921521,17.091232 2.177599,17.2651 0.03928,0.02667 1.762326,0.676965 3.82898,1.445093 3.386828,1.258806 3.757558,1.458355 3.757558,2.022564 0,0.57948 -0.10282,0.625889 -1.38437,0.624898 -0.7614,-5.28e-4 -2.867686,-0.07673 -4.680643,-0.169204 l -3.296284,-0.168135 -1.40969,-2.072144 -1.40969,-2.072142 h -2.709966 -2.709966 l -1.358438,2.069153 -1.358438,2.069153 -3.355268,0.171125 c -1.845397,0.09412 -3.978231,0.171606 -4.73963,0.172194 -1.28155,9.91e-4 -1.384362,-0.04542 -1.384362,-0.624898 z m 18.702854,-9.460097 c -0.07106,-3.206371 -0.950974,-13.222206 -1.167604,-13.290483 -0.145028,-0.04571 -0.418806,0.01516 -0.608395,0.135264 -0.282755,0.179126 -0.261465,1.457895 0.118463,7.115289 0.462533,6.88743 0.464005,6.896916 1.069849,6.896916 0.512562,0 0.603733,-0.132948 0.587687,-0.856986 z M 84.7332,51.513371 c 0.249766,-2.791796 0.518164,-5.402307 0.59644,-5.801135 0.125695,-0.640432 0.06286,-0.725142 -0.537851,-0.725142 -0.374094,0 -0.680958,0.089 -0.681921,0.197766 -9.49e-4,0.108771 -0.235983,2.511628 -0.52227,5.339681 -0.653732,6.457821 -0.65894,6.064824 0.08038,6.064824 0.602127,0 0.617781,-0.07459 1.065226,-5.075994 z m 2.806362,-0.461454 c 0,-2.911553 -0.03925,-3.164255 -0.491535,-3.164255 -0.58063,0 -0.826905,1.306762 -0.826905,4.387654 0,1.894455 0.01576,1.940857 0.65922,1.940857 h 0.65922 z"
           id="path2810"
           inkscape:connector-curvature="0"
           transform="matrix(0.26458333,0,0,0.26458333,0,267)" />
      </g>
    </g>
    <path
       style="fill:none;stroke:#000000;stroke-width:0.26458332px;stroke-linecap:butt;stroke-linejoin:miter;stroke-opacity:1"
       d="m 15.011977,268.80997 c -2.479039,0 -4.566652,3.13142 -4.436176,4.95808 0.130476,1.82666 0.521903,10.69901 0.521903,10.69901 0,0 0,3.00094 -0.652379,3.39237 -0.6523789,0.39143 -5.7409339,1.30476 -6.78474,2.21809 -1.0438061,0.91333 -1.6961849,4.17522 -1.6961849,4.17522 l 1.5657091,0.5219 c 0,0 1.0438061,-0.91333 1.8266608,-0.91333 0.7828547,0 3.39237,-0.13047 3.39237,-0.13047 0,0 -1.696185,1.0438 -0.9133305,1.30476 0.7828547,0.26095 2.3485635,0.26095 2.3485635,0.26095 l 1.174283,-0.26095 -0.260952,-1.04381 3.783797,-0.13048"
       id="path1958"
       inkscape:connector-curvature="0" />
    <path
       style="fill:none;stroke:#000000;stroke-width:0.26458332px;stroke-linecap:butt;stroke-linejoin:miter;stroke-opacity:1"
       d="m 10.836753,291.2518 0.260951,2.73999"
       id="path1960"
       inkscape:connector-curvature="0" />
    <path
       style="fill:#333333;stroke:#000000;stroke-width:0.26458332px;stroke-linecap:butt;stroke-linejoin:miter;stroke-opacity:1"
       d="m 14.891,272.07186 c -2.773232,0.071 -2.887229,2.08761 -2.887229,2.08761 l 0.91333,5.21903 1.003701,1.84172 0.935654,-0.0121"
       id="path1962"
       inkscape:connector-curvature="0"
       sodipodi:nodetypes="ccccc" />
    <path
       inkscape:connector-curvature="0"
       id="path1964"
       d="m 15.033768,268.80997 c 2.479039,0 4.566652,3.13142 4.436176,4.95808 -0.130476,1.82666 -0.521903,10.69901 -0.521903,10.69901 0,0 0,3.00094 0.652379,3.39237 0.652379,0.39143 5.740934,1.30476 6.78474,2.21809 1.043806,0.91333 1.696185,4.17522 1.696185,4.17522 l -1.565709,0.5219 c 0,0 -1.043806,-0.91333 -1.826661,-0.91333 -0.782855,0 -3.39237,-0.13047 -3.39237,-0.13047 0,0 1.696185,1.0438 0.91333,1.30476 -0.782854,0.26095 -2.348564,0.26095 -2.348564,0.26095 l -1.174282,-0.26095 0.260952,-1.04381 -3.783797,-0.13048"
       style="fill:none;stroke:#000000;stroke-width:0.26458332px;stroke-linecap:butt;stroke-linejoin:miter;stroke-opacity:1" />
    <path
       inkscape:connector-curvature="0"
       id="path1966"
       d="m 19.208992,291.2518 -0.260951,2.73999"
       style="fill:none;stroke:#000000;stroke-width:0.26458332px;stroke-linecap:butt;stroke-linejoin:miter;stroke-opacity:1" />
    <path
       style="fill:none;stroke:#000000;stroke-width:0.26458332px;stroke-linecap:butt;stroke-linejoin:miter;stroke-opacity:1"
       d="m 14.881501,293.86131 h 0.282743"
       id="path1974"
       inkscape:connector-curvature="0" />
    <path
       style="fill:#ffffff;stroke:#000000;stroke-width:0.26458332px;stroke-linecap:butt;stroke-linejoin:miter;stroke-opacity:1"
       d="m 14.303194,272.91563 c -0.527228,0 -1.173508,0.42518 -1.326574,1.02894 -0.153066,0.60377 -0.03402,0.9184 -0.03402,0.9184 0,0 0.06803,-0.20409 0.204089,-0.52723 0.272118,-0.50172 0.697301,-1.10548 0.765331,-1.1565 0.06803,-0.051 0.391169,-0.26361 0.391169,-0.26361 z"
       id="path1976"
       inkscape:connector-curvature="0"
       sodipodi:nodetypes="cccccc" />
    <path
       sodipodi:nodetypes="ccccc"
       inkscape:connector-curvature="0"
       id="path1978"
       d="m 14.890997,272.07186 c 2.773232,0.071 2.887229,2.08761 2.887229,2.08761 l -0.91333,5.21903 -1.072786,1.84172 -0.935654,-0.0121"
       style="fill:#333333;stroke:#000000;stroke-width:0.26458332px;stroke-linecap:butt;stroke-linejoin:miter;stroke-opacity:1" />
    <path
       style="fill:none;stroke:#000080;stroke-width:1;stroke-linecap:butt;stroke-linejoin:miter;stroke-miterlimit:4;stroke-dasharray:none;stroke-opacity:1"
       d="m 11.578989,289.26442 1.120996,3.6299 v 0"
       id="path1980"
       inkscape:connector-curvature="0" />
    <path
       inkscape:connector-curvature="0"
       id="path1986"
       d="m 16.870659,292.89432 1.120996,-3.6299 v 0"
       style="fill:none;stroke:#000080;stroke-width:1;stroke-linecap:butt;stroke-linejoin:miter;stroke-miterlimit:4;stroke-dasharray:none;stroke-opacity:1" />
    <path
       style="fill:none;stroke:#000080;stroke-width:0.40520403;stroke-linecap:butt;stroke-linejoin:miter;stroke-miterlimit:4;stroke-dasharray:none;stroke-opacity:1"
       d="m 22.586274,293.67564 -0.01954,-3.02975 v 0"
       id="path1990"
       inkscape:connector-curvature="0" />
    <path
       inkscape:connector-curvature="0"
       id="path1992"
       d="m 23.528185,293.70965 -0.01964,-2.64429 v 0"
       style="fill:none;stroke:#000080;stroke-width:0.37954405;stroke-linecap:butt;stroke-linejoin:miter;stroke-miterlimit:4;stroke-dasharray:none;stroke-opacity:1" />
    <path
       style="fill:none;stroke:#000080;stroke-width:0.29423869;stroke-linecap:butt;stroke-linejoin:miter;stroke-miterlimit:4;stroke-dasharray:none;stroke-opacity:1"
       d="m 24.365591,293.70719 -0.02003,-1.55797 v 0"
       id="path1994"
       inkscape:connector-curvature="0" />
    <path
       inkscape:connector-curvature="0"
       id="path1996"
       d="m 7.5114899,293.71052 0.01954,-3.02975 v 0"
       style="fill:none;stroke:#000080;stroke-width:0.40520403;stroke-linecap:butt;stroke-linejoin:miter;stroke-miterlimit:4;stroke-dasharray:none;stroke-opacity:1" />
    <path
       style="fill:none;stroke:#000080;stroke-width:0.37954405;stroke-linecap:butt;stroke-linejoin:miter;stroke-miterlimit:4;stroke-dasharray:none;stroke-opacity:1"
       d="m 6.5695789,293.74453 0.01964,-2.64429 v 0"
       id="path1998"
       inkscape:connector-curvature="0" />
    <path
       inkscape:connector-curvature="0"
       id="path2000"
       d="m 5.7321729,293.74207 0.02003,-1.55797 v 0"
       style="fill:none;stroke:#000080;stroke-width:0.29423869;stroke-linecap:butt;stroke-linejoin:miter;stroke-miterlimit:4;stroke-dasharray:none;stroke-opacity:1" />
    <path
       style="fill:none;stroke:#000000;stroke-width:0.26458332px;stroke-linecap:butt;stroke-linejoin:miter;stroke-opacity:1"
       d="m 14.308237,282.79641 c -0.06977,5.40698 0.279069,6.45349 0.279069,6.45349"
       id="path2002"
       inkscape:connector-curvature="0" />
    <path
       inkscape:connector-curvature="0"
       id="path2771"
       d="m 10.836753,291.2518 0.260951,2.73999"
       style="fill:none;stroke:#000000;stroke-width:0.26458332px;stroke-linecap:butt;stroke-linejoin:miter;stroke-opacity:1" />
    <path
       style="opacity:1;fill:#f2f2f2;fill-opacity:1;stroke:none;stroke-width:0.13184398;stroke-miterlimit:4;stroke-dasharray:none;stroke-dashoffset:0;stroke-opacity:1"
       d="m 8.9697453,295.07387 c -0.699856,-0.10022 -1.1210493,-0.18636 -1.1514026,-0.23548 -0.056085,-0.0907 0.2759789,-0.44479 0.6605474,-0.70427 0.2503508,-0.16892 0.3464895,-0.27736 0.3339893,-0.37673 -0.015534,-0.12349 -0.077726,-0.14184 -0.5408086,-0.15958 l -0.5232556,-0.02 0.024493,-1.46252 0.024493,-1.46251 H 7.5465643 7.2953286 v 1.5 1.5 H 7.0511426 6.8069565 v -1.2907 -1.2907 H 6.5976542 6.3883518 l -5.027e-4,0.81977 c -2.646e-4,0.45087 -0.020511,1.03169 -0.044973,1.2907 -0.043408,0.45961 -0.049205,0.47093 -0.2413296,0.47093 H 5.9046937 l -0.019801,-0.75 c -0.018402,-0.69689 -0.029684,-0.75 -0.1593376,-0.75 -0.1300972,0 -0.1408692,0.0531 -0.1592617,0.78488 l -0.019727,0.78489 -0.2942268,7.9e-4 c -0.3397549,7.9e-4 -0.8948869,0.24031 -1.4029856,0.60534 l -0.3500572,0.25149 -0.6777657,-0.22215 -0.6777657,-0.22216 0.2040497,-0.76159 c 0.4002377,-1.49386 0.8460961,-2.51358 1.3272592,-3.03558 0.465197,-0.50467 1.4281763,-0.85242 4.7319559,-1.70875 0.8992304,-0.23308 1.7696138,-0.48334 1.9341858,-0.55614 0.530417,-0.23463 0.72291,-0.77514 0.861996,-2.42043 0.06557,-0.77571 0.04972,-1.51752 -0.102146,-4.77918 -0.09887,-2.12353 -0.225362,-4.66154 -0.281093,-5.64003 -0.116345,-2.04272 -0.08217,-2.36309 0.348938,-3.27088 0.929492,-1.95724 2.769673,-3.21702 4.304301,-2.9467 1.561877,0.27512 3.132799,1.85301 3.689011,3.70539 0.154654,0.51505 0.155757,0.54616 0.07546,2.12791 -0.466622,9.19202 -0.500982,10.77279 -0.25991,11.95754 0.156015,0.76674 0.345764,1.11165 0.693199,1.26005 0.157929,0.0675 1.144433,0.34748 2.192232,0.62227 3.101458,0.81336 4.173057,1.20915 4.578556,1.69106 0.268541,0.31914 0.685137,1.17637 0.936483,1.92699 0.266928,0.79716 0.513763,1.75217 0.470826,1.82165 -0.0177,0.0286 -0.310195,0.14089 -0.65001,0.24949 l -0.617848,0.19745 -0.485966,-0.31071 c -0.584232,-0.37354 -0.997843,-0.54314 -1.324587,-0.54314 h -0.242774 v -0.80232 -0.80233 h -0.174419 -0.174419 v 0.76744 0.76744 h -0.207762 -0.207763 l -0.01898,-1.30813 -0.01898,-1.30814 h -0.209302 -0.209302 l -0.01898,1.30814 -0.01898,1.30813 H 23.06995 c -0.266548,0 -0.286251,-0.12065 -0.286251,-1.7529 V 290.583 h -0.209303 -0.209302 v 1.5 1.5 h -0.550003 c -0.492591,0 -0.553837,0.0147 -0.586744,0.1405 -0.02787,0.10656 0.03337,0.18922 0.253491,0.34214 0.393285,0.27323 0.753921,0.63792 0.722891,0.73101 -0.07272,0.21817 -2.046567,0.40452 -2.704888,0.25537 -0.673622,-0.15262 -0.622252,-0.10093 -0.509003,-0.51221 0.07811,-0.28367 0.36994,-2.81638 0.373521,-3.2417 4.24e-4,-0.048 -0.07213,-0.0872 -0.161187,-0.0872 -0.15739,0 -0.164315,0.0269 -0.2474,0.95931 -0.04701,0.52761 -0.102769,1.10085 -0.123901,1.27385 l -0.03842,0.31455 -3.777971,-0.002 -3.777971,-0.002 -0.117596,-1.21971 c -0.06468,-0.67085 -0.11969,-1.24326 -0.122252,-1.27204 -0.0026,-0.0288 -0.08374,-0.0523 -0.180404,-0.0523 -0.145594,0 -0.170044,0.0269 -0.142506,0.15698 0.01828,0.0863 0.08405,0.72209 0.14616,1.41279 0.06211,0.6907 0.159387,1.43981 0.216184,1.6647 0.05679,0.22488 0.08725,0.42488 0.06769,0.44445 -0.159851,0.15985 -1.4983579,0.27526 -2.1350327,0.18408 z m 4.0904487,-2.26179 c 0.139387,-0.053 0.151504,-0.0859 0.09398,-0.25544 -0.03632,-0.10703 -0.286949,-0.91475 -0.556953,-1.79493 -0.270005,-0.88017 -0.505519,-1.61492 -0.523365,-1.63277 -0.07031,-0.0703 -0.976014,0.25443 -0.968434,0.34723 0.0043,0.0523 0.25243,0.88477 0.551453,1.84984 l 0.543678,1.75468 0.349809,-0.10389 c 0.192395,-0.0571 0.421818,-0.13126 0.509828,-0.16472 z m 4.869226,-1.5384 c 0.290783,-0.94395 0.528697,-1.76062 0.528697,-1.81483 0,-0.1416 -0.899947,-0.39549 -0.974471,-0.27491 -0.06997,0.11321 -1.135507,3.57081 -1.106054,3.58906 0.118344,0.0734 0.940408,0.29174 0.976247,0.25933 0.02579,-0.0233 0.284798,-0.81471 0.575581,-1.75865 z m -3.192178,-2.04246 c 0.0064,-0.005 -0.01722,-0.16351 -0.05254,-0.35257 -0.115117,-0.6162 -0.202833,-2.4791 -0.203086,-4.31312 l -2.47e-4,-1.79652 H 14.29628 14.111189 l 0.04392,2.35466 c 0.03982,2.13457 0.109051,3.33479 0.229363,3.9761 0.03696,0.19704 0.06566,0.22479 0.192265,0.18594 0.08185,-0.0251 0.154073,-0.0496 0.160499,-0.0545 z m 1.726429,-8.81823 0.552067,-0.95793 0.444668,-2.51163 c 0.244567,-1.38139 0.446138,-2.6485 0.447934,-2.81578 0.0022,-0.20475 -0.068,-0.44892 -0.214781,-0.74707 -0.376223,-0.76422 -1.065178,-1.21648 -2.134147,-1.40095 -1.670063,-0.28821 -3.243238,0.46691 -3.625314,1.74014 -0.108011,0.35993 -0.104776,0.3873 0.359931,3.04404 l 0.468922,2.68084 0.526224,0.96451 0.526224,0.96451 1.048104,-10e-4 1.048103,-0.001 0.552065,-0.95793 z"
       id="path2806"
       inkscape:connector-curvature="0" />
    <path
       style="fill:#ffff00;stroke:#ff6600;stroke-width:0.26458332px;stroke-linecap:butt;stroke-linejoin:miter;stroke-opacity:1"
       d="m 7.4789773,295.48891 c 1.0922661,0.40692 3.7908057,0.28913 3.7908057,0.28913"
       id="path2842"
       inkscape:connector-curvature="0" />
    <path
       style="fill:#ffff00;stroke:#ff6600;stroke-width:0.26458332px;stroke-linecap:butt;stroke-linejoin:miter;stroke-opacity:1"
       d="m 22.524407,295.59599 c -2.407043,0.54243 -3.942186,0.0766 -3.844348,0.0536"
       id="path2844"
       inkscape:connector-curvature="0"
       sodipodi:nodetypes="cc" />
  </g>
</svg>
